<svg width="106" height="27" viewBox="0 0 106 27" fill="none" xmlns="http://www.w3.org/2000/svg">
<path d="M0 18.6824L4.26 10.2487L0 3.43994V18.6824Z" fill="#09563F"/>
<path d="M1.93359 27L12.4998 17.2812L5.74484 20.1925L1.93359 27Z" fill="#00674B"/>
<path d="M10.2511 0L0.088623 19.6625L6.70237 16.31L12.4224 9.39125L10.2511 0Z" fill="#00674B"/>
<path d="M6.70237 16.3101L0.088623 19.6626L5.74487 20.1926L12.4999 17.2813L6.70237 16.3101Z" fill="#09563F"/>
<path d="M27.38 10.46C27.34 10.3933 27.2 10.2933 26.96 10.16C26.72 10.0133 26.42 9.86 26.06 9.7C25.7 9.54 25.3067 9.4 24.88 9.28C24.4533 9.16 24.0267 9.1 23.6 9.1C23.04 9.1 22.6067 9.2 22.3 9.4C21.9933 9.58667 21.84 9.88 21.84 10.28C21.84 10.6 21.9533 10.8533 22.18 11.04C22.42 11.2267 22.76 11.3933 23.2 11.54C23.64 11.6733 24.18 11.8333 24.82 12.02C25.7267 12.26 26.5133 12.5533 27.18 12.9C27.8467 13.2333 28.3533 13.6667 28.7 14.2C29.06 14.7333 29.24 15.44 29.24 16.32C29.24 17.12 29.0933 17.8 28.8 18.36C28.5067 18.9067 28.1067 19.3533 27.6 19.7C27.1067 20.0333 26.54 20.28 25.9 20.44C25.26 20.5867 24.6 20.66 23.92 20.66C23.2267 20.66 22.5133 20.5933 21.78 20.46C21.06 20.3133 20.3667 20.1133 19.7 19.86C19.0333 19.5933 18.42 19.2733 17.86 18.9L19.3 16.04C19.3533 16.1067 19.5267 16.2333 19.82 16.42C20.1133 16.5933 20.4733 16.78 20.9 16.98C21.34 17.1667 21.8267 17.3333 22.36 17.48C22.8933 17.6267 23.4333 17.7 23.98 17.7C24.5667 17.7 25 17.6067 25.28 17.42C25.5733 17.2333 25.72 16.9733 25.72 16.64C25.72 16.28 25.5667 16 25.26 15.8C24.9667 15.6 24.56 15.42 24.04 15.26C23.5333 15.1 22.9467 14.92 22.28 14.72C21.4133 14.4533 20.6933 14.1533 20.12 13.82C19.56 13.4867 19.14 13.08 18.86 12.6C18.5933 12.12 18.46 11.52 18.46 10.8C18.46 9.8 18.6933 8.96 19.16 8.28C19.64 7.58667 20.28 7.06667 21.08 6.72C21.88 6.36 22.7533 6.18 23.7 6.18C24.3667 6.18 25.0067 6.26 25.62 6.42C26.2467 6.58 26.8267 6.78 27.36 7.02C27.9067 7.26 28.3933 7.5 28.82 7.74L27.38 10.46ZM37.4313 19.94C37.1379 20.06 36.8113 20.18 36.4513 20.3C36.1046 20.42 35.7379 20.5133 35.3513 20.58C34.9646 20.66 34.5846 20.7 34.2113 20.7C33.6779 20.7 33.1846 20.6133 32.7313 20.44C32.2913 20.2533 31.9379 19.9533 31.6713 19.54C31.4179 19.1267 31.2913 18.58 31.2913 17.9V12.42H29.9513V10H31.2913V6.66H34.4913V10H36.6313V12.42H34.4913V16.8C34.4913 17.1467 34.5779 17.4 34.7513 17.56C34.9246 17.7067 35.1446 17.78 35.4112 17.78C35.6379 17.78 35.8779 17.74 36.1313 17.66C36.3979 17.58 36.6246 17.4933 36.8113 17.4L37.4313 19.94ZM38.5781 16.72V10H41.7781V16.02C41.7781 16.66 41.9048 17.1533 42.1581 17.5C42.4115 17.8333 42.7715 18 43.2381 18C43.5315 18 43.8115 17.9533 44.0781 17.86C44.3448 17.7533 44.6048 17.5867 44.8581 17.36C45.1115 17.1333 45.3381 16.84 45.5381 16.48V10H48.7381V16.94C48.7381 17.26 48.7848 17.4867 48.8781 17.62C48.9848 17.74 49.1648 17.8133 49.4181 17.84V20.5C49.1248 20.5533 48.8648 20.5933 48.6381 20.62C48.4248 20.6467 48.2315 20.66 48.0581 20.66C47.4981 20.66 47.0515 20.5467 46.7181 20.32C46.3848 20.08 46.1781 19.7467 46.0981 19.32L46.0381 18.68C45.5581 19.3733 44.9581 19.8867 44.2381 20.22C43.5315 20.54 42.7381 20.7 41.8581 20.7C40.7915 20.7 39.9781 20.36 39.4181 19.68C38.8581 19 38.5781 18.0133 38.5781 16.72ZM50.6172 15.24C50.6172 14.2133 50.8172 13.2933 51.2172 12.48C51.6172 11.6533 52.1639 11 52.8572 10.52C53.5505 10.04 54.3505 9.8 55.2572 9.8C55.9905 9.8 56.6572 9.98 57.2572 10.34C57.8572 10.6867 58.3105 11.1467 58.6172 11.72V5.9H61.8172V16.94C61.8172 17.26 61.8705 17.4867 61.9772 17.62C62.0839 17.74 62.2572 17.8133 62.4972 17.84V20.5C61.9372 20.6067 61.4839 20.66 61.1372 20.66C60.5905 20.66 60.1439 20.54 59.7972 20.3C59.4639 20.06 59.2572 19.7267 59.1772 19.3L59.1172 18.76C58.7439 19.4133 58.2372 19.9 57.5972 20.22C56.9572 20.54 56.2839 20.7 55.5772 20.7C54.8572 20.7 54.1905 20.5667 53.5772 20.3C52.9772 20.02 52.4505 19.6333 51.9972 19.14C51.5572 18.6467 51.2172 18.0667 50.9772 17.4C50.7372 16.7333 50.6172 16.0133 50.6172 15.24ZM58.6372 16.54V14.34C58.5039 13.98 58.3105 13.6667 58.0572 13.4C57.8172 13.1333 57.5372 12.92 57.2172 12.76C56.9105 12.6 56.5972 12.52 56.2772 12.52C55.9305 12.52 55.6105 12.5933 55.3172 12.74C55.0372 12.8867 54.7905 13.0933 54.5772 13.36C54.3639 13.6133 54.1972 13.9067 54.0772 14.24C53.9705 14.5733 53.9172 14.9267 53.9172 15.3C53.9172 15.6867 53.9772 16.0467 54.0972 16.38C54.2305 16.7 54.4105 16.9867 54.6372 17.24C54.8639 17.48 55.1305 17.6667 55.4372 17.8C55.7439 17.9333 56.0772 18 56.4372 18C56.6639 18 56.8839 17.9667 57.0972 17.9C57.3105 17.82 57.5105 17.72 57.6972 17.6C57.8972 17.48 58.0772 17.3267 58.2372 17.14C58.3972 16.9533 58.5305 16.7533 58.6372 16.54ZM69.3231 20.7C68.4298 20.7 67.6365 20.56 66.9431 20.28C66.2498 19.9867 65.6565 19.5933 65.1631 19.1C64.6831 18.6067 64.3165 18.04 64.0631 17.4C63.8098 16.7467 63.6831 16.0667 63.6831 15.36C63.6831 14.3467 63.9031 13.4267 64.3431 12.6C64.7965 11.76 65.4431 11.0867 66.2831 10.58C67.1231 10.06 68.1365 9.8 69.3231 9.8C70.5098 9.8 71.5165 10.0533 72.3431 10.56C73.1831 11.0667 73.8231 11.7333 74.2631 12.56C74.7031 13.3733 74.9231 14.26 74.9231 15.22C74.9231 15.4067 74.9098 15.5933 74.8831 15.78C74.8698 15.9533 74.8565 16.1067 74.8431 16.24H67.0831C67.1231 16.7067 67.2498 17.1 67.4631 17.42C67.6898 17.74 67.9765 17.9867 68.3231 18.16C68.6698 18.32 69.0365 18.4 69.4231 18.4C69.9031 18.4 70.3498 18.2867 70.7631 18.06C71.1898 17.8333 71.4831 17.5267 71.6431 17.14L74.3631 17.9C74.0965 18.4467 73.7165 18.9333 73.2231 19.36C72.7431 19.7733 72.1698 20.1 71.5031 20.34C70.8498 20.58 70.1231 20.7 69.3231 20.7ZM67.0031 14.28H71.5631C71.5098 13.84 71.3831 13.46 71.1831 13.14C70.9831 12.8067 70.7165 12.5533 70.3831 12.38C70.0498 12.1933 69.6831 12.1 69.2831 12.1C68.8698 12.1 68.4965 12.1933 68.1631 12.38C67.8431 12.5533 67.5831 12.8067 67.3831 13.14C67.1831 13.46 67.0565 13.84 67.0031 14.28ZM86.4934 20.5H83.2934V14.6C83.2934 13.9067 83.1601 13.4067 82.8934 13.1C82.6401 12.78 82.3001 12.62 81.8734 12.62C81.5801 12.62 81.2801 12.7 80.9734 12.86C80.6668 13.02 80.3868 13.24 80.1334 13.52C79.8934 13.8 79.7068 14.12 79.5734 14.48V20.5H76.3734V10H79.2534V11.76C79.5201 11.3467 79.8534 10.9933 80.2534 10.7C80.6534 10.4067 81.1134 10.1867 81.6334 10.04C82.1534 9.88 82.7201 9.8 83.3334 9.8C84.0134 9.8 84.5601 9.92667 84.9734 10.18C85.4001 10.42 85.7201 10.74 85.9334 11.14C86.1601 11.54 86.3068 11.9733 86.3734 12.44C86.4534 12.8933 86.4934 13.34 86.4934 13.78V20.5ZM95.4 19.94C95.1067 20.06 94.78 20.18 94.42 20.3C94.0733 20.42 93.7067 20.5133 93.32 20.58C92.9333 20.66 92.5533 20.7 92.18 20.7C91.6467 20.7 91.1533 20.6133 90.7 20.44C90.26 20.2533 89.9067 19.9533 89.64 19.54C89.3867 19.1267 89.26 18.58 89.26 17.9V12.42H87.92V10H89.26V6.66H92.46V10H94.6V12.42H92.46V16.8C92.46 17.1467 92.5467 17.4 92.72 17.56C92.8933 17.7067 93.1133 17.78 93.38 17.78C93.6067 17.78 93.8467 17.74 94.1 17.66C94.3667 17.58 94.5933 17.4933 94.78 17.4L95.4 19.94ZM100.667 20.7C99.7735 20.7 98.9002 20.5533 98.0469 20.26C97.1935 19.9667 96.4735 19.5333 95.8869 18.96L96.9869 16.94C97.6269 17.4067 98.2469 17.76 98.8469 18C99.4602 18.24 100.034 18.36 100.567 18.36C100.98 18.36 101.3 18.2933 101.527 18.16C101.754 18.0267 101.867 17.82 101.867 17.54C101.867 17.34 101.8 17.1867 101.667 17.08C101.534 16.96 101.327 16.8533 101.047 16.76C100.78 16.6667 100.447 16.5667 100.047 16.46C99.2469 16.1933 98.5802 15.9333 98.0469 15.68C97.5135 15.4267 97.1135 15.12 96.8469 14.76C96.5802 14.3867 96.4469 13.9067 96.4469 13.32C96.4469 12.6133 96.6202 12 96.9669 11.48C97.3269 10.9467 97.8335 10.5333 98.4869 10.24C99.1402 9.94667 99.9202 9.8 100.827 9.8C101.547 9.8 102.247 9.91333 102.927 10.14C103.62 10.3667 104.267 10.7467 104.867 11.28L103.627 13.28C103.027 12.8667 102.494 12.5667 102.027 12.38C101.56 12.1933 101.107 12.1 100.667 12.1C100.44 12.1 100.234 12.1267 100.047 12.18C99.8602 12.2333 99.7069 12.3267 99.5869 12.46C99.4802 12.58 99.4269 12.74 99.4269 12.94C99.4269 13.14 99.4802 13.3 99.5869 13.42C99.7069 13.54 99.8869 13.6467 100.127 13.74C100.38 13.82 100.694 13.92 101.067 14.04C101.934 14.2933 102.654 14.5533 103.227 14.82C103.8 15.0733 104.227 15.3933 104.507 15.78C104.8 16.1533 104.947 16.6533 104.947 17.28C104.947 18.3467 104.56 19.1867 103.787 19.8C103.027 20.4 101.987 20.7 100.667 20.7Z" fill="#00674B"/>
</svg>
